<svg xmlns="http://www.w3.org/2000/svg" version="1.1" xmlns:xlink="http://www.w3.org/1999/xlink" xmlns:svgjs="http://svgjs.dev/svgjs" width="1500" height="564" viewBox="0 0 1500 564"><g transform="matrix(1,0,0,1,-0.9090909090909918,-0.30475925270212656)"><svg viewBox="0 0 396 149" data-background-color="#ffffff" preserveAspectRatio="xMidYMid meet" height="564" width="1500" xmlns="http://www.w3.org/2000/svg" xmlns:xlink="http://www.w3.org/1999/xlink"><g id="tight-bounds" transform="matrix(1,0,0,1,0.2400000000000091,0.08051263945499443)"><svg viewBox="0 0 395.52 148.83897472109" height="148.83897472109" width="395.52"><g><svg viewBox="0 0 534.1310644538803 200.99999999999997" height="148.83897472109" width="395.52"><g><rect width="8.332743419919845" height="200.99999999999997" x="142.7954052950065" y="0" fill="#26456d" opacity="1" stroke-width="0" stroke="transparent" fill-opacity="1" class="rect-qz-0" data-fill-palette-color="primary" rx="1%" id="qz-0" data-palette-color="#26456d"></rect></g><g transform="matrix(1,0,0,1,172.9416131649783,0.4999999999999858)"><svg viewBox="0 0 361.18945128890203 200" height="200" width="361.18945128890203"><g id="textblocktransform"><svg viewBox="0 0 361.18945128890203 200" height="200" width="361.18945128890203" id="textblock"><g><svg viewBox="0 0 361.18945128890203 200" height="200" width="361.18945128890203"><g transform="matrix(1,0,0,1,0,0)"><svg width="361.18945128890203" viewBox="2.000000000000001 -35.720000000000006 142.57999999999996 75.95000000000002" height="200" data-palette-color="#26456d"><svg></svg><svg></svg><g class="wordmark-text-0" data-fill-palette-color="primary" id="text-0"><path d="M19.95-0.32v-1.8l-6.72 2.46c-0.52 0.18-0.95 0.27-1.29 0.27v0h-1c-2.313-0.113-4.307-1.057-5.98-2.83v0c-1.68-1.773-2.633-3.953-2.86-6.54v0c-0.067-0.687-0.1-1.347-0.1-1.98v0c0-0.847 0.057-1.67 0.17-2.47v0c0.2-1.38 0.737-2.763 1.61-4.15v0c0.427-0.713 1.153-1.46 2.18-2.24v0c0.353-0.247 0.75-0.467 1.19-0.66v0c1.307-0.493 2.613-0.983 3.92-1.47 1.313-0.487 2.627-0.973 3.94-1.46v0c0.28-0.1 0.543-0.15 0.79-0.15v0h0.12c1.04 0.047 2.3 0.307 3.78 0.78v0c0.133 0.047 0.217 0.08 0.25 0.1v0-8.23c0-1.04-0.407-1.707-1.22-2-0.82-0.293-1.23-0.65-1.23-1.07v0c0-0.347 0.173-0.52 0.52-0.52v0c1.073-0.047 2.133-0.21 3.18-0.49 1.053-0.273 2.11-0.59 3.17-0.95v0 32.16c0 1.053 0.407 1.723 1.22 2.01 0.813 0.287 1.22 0.633 1.22 1.04v0c0 0.34-0.173 0.51-0.52 0.51v0h-5.93c-0.273 0-0.41-0.107-0.41-0.32zM19.95-3.56v-15.24c-0.733-0.667-1.633-1.247-2.7-1.74-1.067-0.5-2.017-0.767-2.85-0.8v0h-0.09c-0.327 0-0.653 0.067-0.98 0.2v0c-0.587 0.207-1.17 0.42-1.75 0.64-0.573 0.22-1.153 0.437-1.74 0.65v0c-0.407 0.167-0.733 0.38-0.98 0.64v0c-1.007 1.073-1.68 2.373-2.02 3.9v0c-0.28 1.16-0.42 2.307-0.42 3.44v0c0 0.36 0.017 0.727 0.05 1.1v0c0.18 2.347 0.813 4.253 1.9 5.72v0c1.093 1.513 2.463 2.497 4.11 2.95v0c0.613 0.18 1.24 0.27 1.88 0.27v0c0.193 0 0.397-0.01 0.61-0.03v0c0.353-0.027 0.777-0.13 1.27-0.31v0c0.373-0.133 0.957-0.35 1.75-0.65 0.8-0.3 1.453-0.547 1.96-0.74zM39.89-14.53v0 10.97c0 1.053 0.403 1.723 1.21 2.01 0.807 0.287 1.21 0.633 1.21 1.04v0c0 0.34-0.163 0.51-0.49 0.51v0h-8.28c-0.34 0-0.51-0.17-0.51-0.51v0c0-0.407 0.407-0.753 1.22-1.04 0.813-0.287 1.22-0.957 1.22-2.01v0-15.63c0-1.027-0.407-1.687-1.22-1.98-0.813-0.293-1.22-0.65-1.22-1.07v0c0-0.34 0.17-0.51 0.51-0.51v0c1.08-0.053 2.143-0.22 3.19-0.5 1.053-0.287 2.107-0.61 3.16-0.97v0 3.22l3.4-1.29c1.253-0.473 2.23-0.823 2.93-1.05v0c0.207-0.067 0.457-0.1 0.75-0.1v0c0.607 0 1.373 0.163 2.3 0.49v0l-0.54 6.13h-1.12c-0.633-2.38-1.853-3.57-3.66-3.57v0c-0.18 0-0.36 0.01-0.54 0.03v0c-1.24 0.147-2.123 0.777-2.65 1.89-0.527 1.113-0.817 2.427-0.87 3.94zM52.08-13.45v0c0.453-3.013 1.653-5.423 3.6-7.23 1.94-1.807 4.497-2.727 7.67-2.76v0h0.1c3.207 0 5.657 0.913 7.35 2.74v0c1.693 1.853 2.54 4.27 2.54 7.25v0c-0.013 0.647-0.037 1.107-0.07 1.38-0.033 0.267-0.367 0.4-1 0.4v0h-15.56c0.053 2.64 0.723 4.827 2.01 6.56 1.28 1.733 2.897 2.793 4.85 3.18v0c0.573 0.133 1.153 0.2 1.74 0.2v0c1.547 0 3.15-0.45 4.81-1.35v0c0.927-0.5 1.553-0.75 1.88-0.75v0c0.08 0 0.143 0.017 0.19 0.05v0c0.053 0.047 0.08 0.12 0.08 0.22v0c0 0.207-0.107 0.507-0.32 0.9v0c-0.193 0.387-0.353 0.647-0.48 0.78-0.12 0.133-0.23 0.247-0.33 0.34v0c-1.773 1.533-4.18 2.3-7.22 2.3v0c-4.267-0.033-7.467-1.4-9.6-4.1v0c-1.64-2.087-2.46-4.563-2.46-7.43v0c0-0.86 0.073-1.753 0.22-2.68zM56.71-13.45v0h12.87c0-1.987-0.447-3.81-1.34-5.47v0c-0.867-1.58-2.447-2.37-4.74-2.37v0h-0.27c-2.293 0.067-3.937 0.897-4.93 2.49-0.993 1.593-1.523 3.377-1.59 5.35zM94.31-0.32v-1.8l-6.71 2.46c-0.52 0.18-0.953 0.27-1.3 0.27v0h-1c-2.307-0.113-4.3-1.057-5.98-2.83v0c-1.673-1.773-2.627-3.953-2.86-6.54v0c-0.06-0.687-0.09-1.347-0.09-1.98v0c0-0.847 0.057-1.67 0.17-2.47v0c0.193-1.38 0.73-2.763 1.61-4.15v0c0.42-0.713 1.143-1.46 2.17-2.24v0c0.36-0.247 0.76-0.467 1.2-0.66v0c1.3-0.493 2.607-0.983 3.92-1.47 1.307-0.487 2.62-0.973 3.94-1.46v0c0.273-0.1 0.533-0.15 0.78-0.15v0h0.12c1.047 0.047 2.31 0.307 3.79 0.78v0c0.127 0.047 0.207 0.08 0.24 0.1v0c0.36 0.147 0.8 0.31 1.32 0.49v0c0.213 0.06 0.41 0.09 0.59 0.09v0c0.26 0 0.487-0.07 0.68-0.21v0c0.34-0.293 0.583-0.54 0.73-0.74v0c0.08-0.113 0.187-0.17 0.32-0.17v0c0.08 0 0.16 0.017 0.24 0.05v0c0.36 0.133 0.54 0.297 0.54 0.49v0 18.9c0 1.053 0.407 1.723 1.22 2.01 0.813 0.287 1.22 0.633 1.22 1.04v0c0 0.34-0.17 0.51-0.51 0.51v0h-5.93c-0.28 0-0.42-0.107-0.42-0.32zM94.31-3.56v-15.21c-0.667-0.62-1.547-1.197-2.64-1.73-1.087-0.527-2.053-0.807-2.9-0.84v0h-0.1c-0.327 0-0.65 0.067-0.97 0.2v0c-0.587 0.207-1.17 0.42-1.75 0.64-0.58 0.22-1.163 0.437-1.75 0.65v0c-0.407 0.167-0.73 0.38-0.97 0.64v0c-1.013 1.073-1.69 2.373-2.03 3.9v0c-0.273 1.16-0.41 2.307-0.41 3.44v0c0 0.36 0.013 0.727 0.04 1.1v0c0.18 2.347 0.817 4.253 1.91 5.72v0c1.093 1.513 2.46 2.497 4.1 2.95v0c0.62 0.18 1.247 0.27 1.88 0.27v0c0.193 0 0.397-0.01 0.61-0.03v0c0.36-0.027 0.783-0.13 1.27-0.31v0c0.373-0.133 0.96-0.35 1.76-0.65 0.793-0.3 1.443-0.547 1.95-0.74zM112.3-24.22v3.2c0.767-0.293 1.457-0.553 2.07-0.78 0.607-0.227 1.187-0.44 1.74-0.64v0c1.5-0.52 3.057-0.86 4.67-1.02v0c0.193-0.02 0.397-0.03 0.61-0.03v0c1.367 0 2.667 0.467 3.9 1.4v0c0.427 0.34 0.77 0.68 1.03 1.02v0c0.733-0.273 1.397-0.52 1.99-0.74 0.593-0.22 1.157-0.43 1.69-0.63v0c1.5-0.52 3.047-0.86 4.64-1.02v0c0.213-0.02 0.427-0.03 0.64-0.03v0c1.347 0 2.64 0.467 3.88 1.4v0c1.987 1.513 2.98 4.76 2.98 9.74v0 8.79c0 1.053 0.407 1.723 1.22 2.01 0.813 0.287 1.22 0.633 1.22 1.04v0c0 0.34-0.17 0.51-0.51 0.51v0h-5.94c-0.26 0-0.39-0.107-0.39-0.32v0-12.03c0-3.567-0.74-6.073-2.22-7.52v0c-0.94-0.927-2.093-1.39-3.46-1.39v0c-0.787 0-1.643 0.153-2.57 0.46v0c-0.327 0.113-0.72 0.257-1.18 0.43-0.467 0.167-0.893 0.323-1.28 0.47v0c0.813 1.68 1.22 4.197 1.22 7.55v0 8.79c0 1.053 0.407 1.723 1.22 2.01 0.813 0.287 1.22 0.633 1.22 1.04v0c0 0.34-0.163 0.51-0.49 0.51v0h-8.28c-0.34 0-0.51-0.17-0.51-0.51v0c0-0.407 0.407-0.753 1.22-1.04 0.813-0.287 1.22-0.957 1.22-2.01v0-8.79c0-3.567-0.74-6.073-2.22-7.52v0c-0.947-0.927-2.103-1.39-3.47-1.39v0c-0.78 0-1.633 0.153-2.56 0.46v0c-0.567 0.193-1.123 0.397-1.67 0.61-0.547 0.213-1.09 0.417-1.63 0.61v0 16.02c0 1.053 0.41 1.723 1.23 2.01 0.813 0.287 1.22 0.633 1.22 1.04v0c0 0.34-0.163 0.51-0.49 0.51v0h-8.28c-0.34 0-0.51-0.17-0.51-0.51v0c0-0.407 0.407-0.753 1.22-1.04 0.813-0.287 1.22-0.957 1.22-2.01v0-15.63c0-1.027-0.407-1.687-1.22-1.98-0.813-0.293-1.22-0.65-1.22-1.07v0c0-0.34 0.17-0.51 0.51-0.51v0c1.073-0.053 2.137-0.22 3.19-0.5 1.047-0.287 2.09-0.61 3.13-0.97z" fill="#26456d" fill-rule="nonzero" stroke="none" stroke-width="1" stroke-linecap="butt" stroke-linejoin="miter" stroke-miterlimit="10" stroke-dasharray="" stroke-dashoffset="0" font-family="none" font-weight="none" font-size="none" text-anchor="none" style="mix-blend-mode: normal" data-fill-palette-color="primary" opacity="1"></path><path transform="translate(0,39.47)" d="M8.84-19.38v15.82c0 1.053 0.407 1.723 1.22 2.01 0.813 0.287 1.22 0.633 1.22 1.04v0c0 0.34-0.163 0.51-0.49 0.51v0h-8.28c-0.34 0-0.51-0.17-0.51-0.51v0c0-0.407 0.407-0.753 1.22-1.04 0.813-0.287 1.22-0.957 1.22-2.01v0-27.13c0-1.04-0.407-1.707-1.22-2-0.813-0.293-1.22-0.65-1.22-1.07v0c0-0.347 0.17-0.52 0.51-0.52v0c1.08-0.047 2.143-0.21 3.19-0.49 1.053-0.273 2.1-0.59 3.14-0.95v0 14.89c0.893-0.34 1.683-0.64 2.37-0.9 0.68-0.26 1.33-0.497 1.95-0.71v0c1.5-0.52 3.053-0.86 4.66-1.02v0c0.2-0.02 0.403-0.03 0.61-0.03v0c1.367 0 2.67 0.467 3.91 1.4v0c1.967 1.513 2.95 4.76 2.95 9.74v0 8.79c0 1.053 0.407 1.723 1.22 2.01 0.813 0.287 1.22 0.633 1.22 1.04v0c0 0.34-0.16 0.51-0.48 0.51v0h-5.94c-0.273 0-0.41-0.107-0.41-0.32v0-12.03c0-3.567-0.74-6.073-2.22-7.52v0c-0.947-0.927-2.103-1.39-3.47-1.39v0c-0.78 0-1.633 0.153-2.56 0.46v0c-0.36 0.127-0.813 0.293-1.36 0.5-0.547 0.2-1.013 0.373-1.4 0.52v0c-0.393 0.147-0.743 0.28-1.05 0.4zM43.48-23.34h0.07c3.18 0.133 5.867 1.357 8.06 3.67 2.2 2.32 3.323 5.093 3.37 8.32v0 0.14c0 3.26-1.147 6.013-3.44 8.26v0c-2.347 2.273-5.203 3.46-8.57 3.56v0h-0.39c-3.127 0-5.82-1.157-8.08-3.47v0c-2.347-2.373-3.52-5.18-3.52-8.42v0-0.07c0.02-3.567 1.363-6.563 4.03-8.99v0c0.307-0.293 0.767-0.543 1.38-0.75 0.607-0.213 1.513-0.54 2.72-0.98v0c0.72-0.26 1.51-0.543 2.37-0.85v0c0.813-0.28 1.48-0.42 2-0.42zM43.04-21.7v0h-0.29c-1.907 0-3.543 0.917-4.91 2.75v0c-1.447 1.953-2.17 4.357-2.17 7.21v0c0 2.847 0.713 5.317 2.14 7.41 1.42 2.087 3.147 3.18 5.18 3.28v0h0.34c1.893 0 3.523-0.92 4.89-2.76v0c1.433-1.933 2.15-4.327 2.15-7.18v0c0-2.847-0.717-5.317-2.15-7.41-1.433-2.087-3.16-3.187-5.18-3.3zM65.75-24.22v3.2c0.76-0.293 1.447-0.553 2.06-0.78 0.613-0.227 1.197-0.44 1.75-0.64v0c1.493-0.52 3.047-0.86 4.66-1.02v0c0.193-0.02 0.397-0.03 0.61-0.03v0c1.367 0 2.67 0.467 3.91 1.4v0c0.42 0.34 0.76 0.68 1.02 1.02v0c0.733-0.273 1.397-0.52 1.99-0.74 0.593-0.22 1.16-0.43 1.7-0.63v0c1.493-0.52 3.04-0.86 4.64-1.02v0c0.207-0.02 0.417-0.03 0.63-0.03v0c1.353 0 2.647 0.467 3.88 1.4v0c1.987 1.513 2.98 4.76 2.98 9.74v0 8.79c0 1.053 0.407 1.723 1.22 2.01 0.813 0.287 1.22 0.633 1.22 1.04v0c0 0.34-0.17 0.51-0.51 0.51v0h-5.93c-0.26 0-0.39-0.107-0.39-0.32v0-12.03c0-3.567-0.743-6.073-2.23-7.52v0c-0.94-0.927-2.093-1.39-3.46-1.39v0c-0.78 0-1.637 0.153-2.57 0.46v0c-0.32 0.113-0.713 0.257-1.18 0.43-0.467 0.167-0.893 0.323-1.28 0.47v0c0.813 1.68 1.22 4.197 1.22 7.55v0 8.79c0 1.053 0.407 1.723 1.22 2.01 0.813 0.287 1.22 0.633 1.22 1.04v0c0 0.34-0.163 0.51-0.49 0.51v0h-8.27c-0.347 0-0.52-0.17-0.52-0.51v0c0-0.407 0.407-0.753 1.22-1.04 0.813-0.287 1.22-0.957 1.22-2.01v0-8.79c0-3.567-0.74-6.073-2.22-7.52v0c-0.94-0.927-2.093-1.39-3.46-1.39v0c-0.787 0-1.643 0.153-2.57 0.46v0c-0.567 0.193-1.123 0.397-1.67 0.61-0.547 0.213-1.087 0.417-1.62 0.61v0 16.02c0 1.053 0.407 1.723 1.22 2.01 0.813 0.287 1.22 0.633 1.22 1.04v0c0 0.34-0.163 0.51-0.49 0.51v0h-8.28c-0.34 0-0.51-0.17-0.51-0.51v0c0-0.407 0.407-0.753 1.22-1.04 0.813-0.287 1.22-0.957 1.22-2.01v0-15.63c0-1.027-0.407-1.687-1.22-1.98-0.813-0.293-1.22-0.65-1.22-1.07v0c0-0.34 0.17-0.51 0.51-0.51v0c1.08-0.053 2.143-0.22 3.19-0.5 1.047-0.287 2.093-0.61 3.14-0.97zM102.1-13.45v0c0.453-3.013 1.653-5.423 3.6-7.23 1.947-1.807 4.507-2.727 7.68-2.76v0h0.1c3.207 0 5.657 0.913 7.35 2.74v0c1.687 1.853 2.53 4.27 2.53 7.25v0c-0.013 0.647-0.037 1.107-0.07 1.38-0.033 0.267-0.367 0.4-1 0.4v0h-15.55c0.047 2.64 0.713 4.827 2 6.56 1.287 1.733 2.907 2.793 4.86 3.18v0c0.567 0.133 1.143 0.2 1.73 0.2v0c1.547 0 3.15-0.45 4.81-1.35v0c0.927-0.5 1.553-0.75 1.88-0.75v0c0.08 0 0.147 0.017 0.2 0.05v0c0.047 0.047 0.07 0.12 0.07 0.22v0c0 0.207-0.107 0.507-0.32 0.9v0c-0.193 0.387-0.35 0.647-0.47 0.78-0.127 0.133-0.237 0.247-0.33 0.34v0c-1.773 1.533-4.183 2.3-7.23 2.3v0c-4.267-0.033-7.463-1.4-9.59-4.1v0c-1.647-2.087-2.47-4.563-2.47-7.43v0c0-0.86 0.073-1.753 0.22-2.68zM106.74-13.45v0h12.86c0-1.987-0.447-3.81-1.34-5.47v0c-0.86-1.58-2.437-2.37-4.73-2.37v0h-0.27c-2.3 0.067-3.943 0.897-4.93 2.49-0.993 1.593-1.523 3.377-1.59 5.35z" fill="#26456d" fill-rule="nonzero" stroke="none" stroke-width="1" stroke-linecap="butt" stroke-linejoin="miter" stroke-miterlimit="10" stroke-dasharray="" stroke-dashoffset="0" font-family="none" font-weight="none" font-size="none" text-anchor="none" style="mix-blend-mode: normal" data-fill-palette-color="primary" opacity="1"></path></g></svg></g></svg></g></svg></g></svg></g><g transform="matrix(1,0,0,1,0,0.5)"><svg viewBox="0 0 120.98194084495455 199.99999999999997" height="199.99999999999997" width="120.98194084495455"><g><svg xmlns="http://www.w3.org/2000/svg" xmlns:xlink="http://www.w3.org/1999/xlink" version="1.1" x="0" y="0" viewBox="20.590999999999998 1.3819999999999997 58.819 97.23599999999999" enable-background="new 0 0 100 100" xml:space="preserve" height="199.99999999999997" width="120.98194084495455" class="icon-icon-0" data-fill-palette-color="accent" id="icon-0"><path d="M74.432 4.276c-0.042-1.604-1.359-2.894-2.972-2.894H28.54c-1.612 0-2.93 1.29-2.971 2.894l-4.969 38.917-0.009 0.141c0 1.64 1.333 2.974 2.972 2.974h21.39v42.838H29.784c-1.639 0-2.972 1.334-2.972 2.973v3.525c0 1.64 1.333 2.974 2.972 2.974h40.432c1.639 0 2.973-1.334 2.973-2.974v-3.525c0-1.639-1.334-2.973-2.973-2.973H54.425V46.308h9.224v12.007c-1.765 0.487-3.064 2.102-3.064 4.019 0 2.301 1.871 4.171 4.172 4.171s4.172-1.87 4.172-4.171c0-1.917-1.3-3.531-3.065-4.019V46.308h10.574c1.64 0 2.972-1.334 2.972-2.974L74.432 4.276zM66.715 62.333c0 1.08-0.879 1.959-1.959 1.959s-1.959-0.879-1.959-1.959 0.879-1.96 1.959-1.96S66.715 61.253 66.715 62.333zM70.976 92.118v3.525c0 0.419-0.341 0.761-0.76 0.761H29.784c-0.419 0-0.759-0.342-0.759-0.761v-3.525c0-0.419 0.34-0.761 0.759-0.761h40.432C70.635 91.357 70.976 91.699 70.976 92.118zM52.212 89.146h-5.046V46.308h5.046V89.146zM76.437 44.095H23.563c-0.399 0-0.729-0.313-0.757-0.706l4.966-38.895 0.009-0.14c0-0.419 0.341-0.76 0.759-0.76h42.92c0.419 0 0.759 0.341 0.759 0.76l4.975 39.034C77.165 43.782 76.837 44.095 76.437 44.095z" fill="#fad480" data-fill-palette-color="accent"></path></svg></g></svg></g></svg></g><defs></defs></svg><rect width="395.52" height="148.83897472109" fill="none" stroke="none" visibility="hidden"></rect></g></svg></g></svg>